<?xml version="1.0" standalone="no"?>
<!DOCTYPE svg PUBLIC "-//W3C//DTD SVG 20010904//EN"
 "http://www.w3.org/TR/2001/REC-SVG-20010904/DTD/svg10.dtd">
<svg version="1.0" xmlns="http://www.w3.org/2000/svg"
 width="631.000000pt" height="312.000000pt" viewBox="0 0 631.000000 312.000000"
 preserveAspectRatio="xMidYMid meet">

<g transform="translate(0.000000,312.000000) scale(0.100000,-0.100000)"
fill="#000000" stroke="none">
<path d="M0 1560 l0 -1560 3155 0 3155 0 0 1560 0 1560 -3155 0 -3155 0 0
-1560z m1300 525 c0 -51 -3 -65 -15 -65 -12 0 -15 14 -15 65 0 51 3 65 15 65
12 0 15 -14 15 -65z m-292 -74 c29 -47 31 -61 8 -61 -14 0 -68 95 -59 104 13
13 22 5 51 -43z m622 43 c0 -4 -12 -28 -27 -55 -24 -45 -53 -65 -53 -37 0 22
51 98 65 98 8 0 15 -3 15 -6z m3855 -524 c0 -419 -1 -414 53 -415 20 0 27 -5
27 -20 0 -17 -14 -24 -80 -42 -108 -29 -114 -29 -126 7 -11 31 -23 38 -34 20
-16 -26 -86 -50 -148 -50 -55 0 -70 4 -104 29 -83 60 -108 116 -101 232 5 89
26 137 88 200 54 54 112 73 200 67 l60 -4 0 125 c0 69 -4 131 -8 138 -4 7 -25
19 -46 28 -25 11 -36 21 -34 33 3 13 24 19 106 29 57 6 111 13 120 16 9 2 19
2 22 -1 3 -2 5 -179 5 -392z m-1758 351 c32 -10 65 -22 74 -25 12 -5 18 0 23
18 4 17 13 26 26 26 11 0 20 -2 20 -4 0 -2 7 -68 15 -146 8 -78 12 -146 9
-151 -14 -23 -35 -4 -65 56 -64 131 -182 205 -307 192 -142 -15 -220 -145
-209 -351 6 -131 34 -210 99 -282 66 -72 130 -98 220 -91 87 7 177 47 224 99
29 32 38 37 50 27 22 -18 18 -26 -43 -90 -218 -229 -617 -156 -718 131 -95
270 60 562 323 610 66 12 191 3 259 -19z m-1097 -16 c0 -22 -4 -25 -39 -25
-58 0 -71 -8 -71 -42 0 -31 155 -515 170 -531 13 -14 200 475 200 521 0 37
-17 52 -57 52 -29 0 -33 3 -33 25 l0 25 160 0 160 0 0 -25 c0 -22 -4 -25 -33
-25 -72 0 -80 -12 -275 -464 -84 -194 -155 -344 -165 -350 -15 -9 -21 -7 -32
8 -15 20 -196 472 -259 646 -49 137 -56 150 -85 156 -46 10 -51 13 -51 34 0
19 6 20 205 20 l205 0 0 -25z m-895 -131 c50 -64 89 -118 88 -121 -3 -10 -517
-563 -522 -562 -8 0 -490 552 -492 562 0 5 39 60 88 122 l88 114 330 1 330 0
90 -116z m-982 80 c54 -34 53 -32 40 -45 -15 -15 -104 37 -96 57 7 18 6 18 56
-12z m1134 9 c2 -6 -17 -24 -42 -39 -36 -21 -49 -24 -58 -15 -9 10 -9 14 3 21
8 5 29 18 45 29 32 21 46 22 52 4z m3043 -275 c27 -29 25 -64 -6 -95 -21 -21
-32 -24 -62 -20 -20 4 -46 8 -57 9 -14 2 -25 -7 -37 -32 -14 -28 -18 -61 -18
-165 0 -71 4 -135 8 -142 4 -6 25 -13 47 -15 32 -2 40 -7 40 -23 0 -19 -8 -20
-167 -23 l-168 -2 0 24 c0 21 5 25 38 28 l37 3 3 149 3 149 -41 37 c-22 20
-40 39 -40 42 0 11 190 90 205 85 9 -4 15 -18 15 -36 0 -59 10 -64 42 -20 47
65 120 87 158 47z m-572 -8 c18 -11 37 -32 42 -46 6 -14 10 -85 10 -158 0
-173 7 -226 30 -226 10 0 23 6 30 14 14 18 40 10 40 -11 0 -8 -15 -30 -34 -49
-31 -31 -39 -34 -91 -34 -53 0 -60 3 -90 35 -27 28 -35 32 -45 21 -22 -27 -99
-56 -150 -56 -77 0 -109 43 -97 132 8 56 54 101 157 152 l85 41 3 58 c4 69 -8
87 -55 87 -57 0 -73 -14 -73 -67 0 -59 -20 -83 -70 -83 -93 0 -74 97 32 165
75 47 218 60 276 25z m-3610 -52 c3 -16 -5 -18 -62 -18 -60 0 -66 2 -66 20 0
19 5 21 62 18 50 -2 63 -6 66 -20z m1212 2 c0 -18 -7 -20 -65 -20 -47 0 -65 4
-65 13 0 23 11 27 72 27 51 0 58 -2 58 -20z m-1145 -289 c-6 -4 -31 -20 -56
-35 -39 -22 -48 -24 -53 -11 -7 19 93 80 108 65 6 -6 6 -13 1 -19z m988 16
c71 -43 76 -48 71 -62 -5 -13 -14 -11 -53 11 -58 34 -65 40 -57 53 9 14 12 14
39 -2z m-783 -207 c0 -16 -61 -120 -70 -120 -22 0 -18 23 11 75 27 49 59 73
59 45z m600 -45 c29 -50 32 -75 10 -75 -9 0 -70 104 -70 120 0 28 32 4 60 -45z
m-300 -95 c0 -63 -2 -70 -20 -70 -18 0 -20 7 -20 70 0 63 2 70 20 70 18 0 20
-7 20 -70z"/>
<path d="M5178 1493 c-50 -58 -64 -172 -31 -272 28 -89 106 -136 159 -97 18
14 19 26 16 173 l-3 158 -30 28 c-35 32 -87 37 -111 10z"/>
<path d="M1032 1811 c8 -20 104 -161 110 -161 8 0 128 152 128 163 0 4 -54 7
-121 7 -66 0 -119 -4 -117 -9z"/>
<path d="M1360 1813 c0 -9 115 -154 123 -157 4 0 27 28 52 64 78 109 83 100
-55 100 -66 0 -120 -3 -120 -7z"/>
<path d="M1246 1722 l-68 -87 71 -3 c40 -2 102 -2 138 0 l66 3 -63 80 c-34 44
-66 83 -69 87 -4 4 -37 -32 -75 -80z"/>
<path d="M925 1718 l-67 -83 117 -3 c65 -1 120 0 123 2 5 5 -37 74 -82 134
l-24 33 -67 -83z"/>
<path d="M1577 1721 c-31 -45 -57 -84 -57 -87 0 -2 57 -4 126 -4 l125 0 -30
43 c-17 23 -48 62 -69 86 l-38 44 -57 -82z"/>
<path d="M1057 1375 c108 -124 198 -224 199 -222 2 2 -21 86 -52 188 -30 101
-59 201 -65 222 l-10 37 -135 0 -134 0 197 -225z"/>
<path d="M1222 1403 c32 -109 63 -216 70 -238 l11 -40 73 220 c41 121 77 228
80 238 5 16 -6 17 -144 17 l-149 0 59 -197z"/>
<path d="M1495 1588 c-46 -127 -145 -423 -143 -429 3 -7 367 380 397 422 13
18 10 19 -118 19 -96 0 -133 -3 -136 -12z"/>
<path d="M4208 1282 c-48 -29 -69 -93 -49 -145 12 -31 36 -40 64 -25 33 17 37
27 37 111 0 84 -5 89 -52 59z"/>
</g>
</svg>
